<svg xmlns="http://www.w3.org/2000/svg" width="40" height="40" viewBox="0 0 40 40" fill="none">
  <rect width="40" height="40" rx="10" fill="#F97316"/>
  <path d="M7 20C8.2 21 9.4 22 12.5 22C17 22 17 18 22.5 18C27.6 18 27.2 22 32 22C34.5 22 34.9 20 36 19" stroke="white" stroke-width="3" stroke-linecap="round"/>
  <path d="M7 14C8.2 15 9.4 16 12.5 16C17 16 17 12 22.5 12C27.6 12 27.2 16 32 16C34.5 16 34.9 14 36 13" stroke="white" stroke-width="3" stroke-linecap="round"/>
  <path d="M7 26C8.2 27 9.4 28 12.5 28C17 28 17 24 22.5 24C27.6 24 27.2 28 32 28C34.5 28 34.9 26 36 25" stroke="white" stroke-width="3" stroke-linecap="round"/>
</svg>